<svg  id="grafit" viewBox="0 0 267 74" fill="none" xmlns="http://www.w3.org/2000/svg">
<path d="M118.425 43.4894C117.779 45.3707 116.913 46.7934 115.795 47.6945C114.709 48.6114 113.339 49.0857 111.717 49.0857C109.781 49.0857 108.191 48.5324 106.947 47.3942C105.687 46.2876 104.727 44.5644 104.144 42.2722C103.546 40.1064 103.263 36.1068 103.263 30.4157C103.263 24.8985 103.577 21.0096 104.207 18.7174C104.837 16.5042 105.766 14.8759 107.057 13.7851C108.317 12.6943 109.891 12.141 111.891 12.141C113.638 12.141 115.055 12.7259 116.22 13.8958C117.385 15.0656 118.299 16.852 118.897 19.2865C119.558 21.8159 119.857 25.7206 119.857 30.9848C119.857 36.4862 119.385 40.6281 118.425 43.4894ZM121.243 12.0778C119.023 9.07413 115.827 7.55651 111.733 7.55651C109.891 7.55651 108.191 7.99915 106.679 8.91605C105.372 9.70648 104.239 10.734 103.263 11.9987V8.66311H98.177V58.9344H103.263V49.6074C105.42 52.2948 108.395 53.7018 112.032 53.6702C116.268 53.7018 119.464 52.1367 121.542 49.1173C123.919 45.6868 125.022 39.1895 125.022 29.5146C125.022 21.4206 123.793 15.6189 121.243 12.0778ZM197.651 45.7975C197.006 46.9041 196.25 47.6945 195.305 48.2636C194.392 48.8327 193.306 49.0857 192.031 49.0857C190.582 49.0857 189.323 48.6114 188.315 47.6945C187.307 46.7618 186.473 45.339 185.89 43.4104C185.04 40.5807 184.615 36.2965 184.615 30.5738C184.615 24.282 185.15 19.6027 186.252 16.5674C186.803 15.0656 187.559 13.9748 188.551 13.2318C189.511 12.5204 190.724 12.141 192.188 12.141C193.763 12.141 195.006 12.6311 196.077 13.5322C197.116 14.4649 197.982 15.9034 198.596 17.8321C199.431 20.5512 199.887 24.9776 199.887 31.0639C199.887 38.3042 199.116 43.2523 197.651 45.7975ZM178.16 43.4104C177.577 45.339 176.758 46.7618 175.735 47.6945C174.727 48.6114 173.499 49.0857 172.019 49.0857C170.744 49.0857 169.626 48.8327 168.681 48.2636C167.752 47.6945 166.965 46.9041 166.351 45.7975C164.934 43.2997 164.194 38.3516 164.194 31.0639C164.194 25.0408 164.651 20.5828 165.564 17.753C166.178 15.8244 167.012 14.4332 168.036 13.5163C169.106 12.6311 170.335 12.141 171.862 12.141C173.357 12.141 174.586 12.552 175.593 13.3425C176.617 14.1329 177.42 15.3027 178.002 16.9152C178.947 19.6185 179.451 24.1713 179.451 30.5738C179.451 36.3439 179.01 40.6281 178.16 43.4104ZM198.754 9.35869C196.911 8.15723 194.739 7.55651 192.188 7.55651C190.44 7.55651 188.85 8.06238 187.433 9.07413C186.315 9.88037 185.355 10.8289 184.615 11.9039V4.90067H179.451V11.9039C178.679 10.8289 177.766 9.88037 176.632 9.07413C175.215 8.06238 173.609 7.55651 171.909 7.55651C169.327 7.55651 167.123 8.15723 165.328 9.35869C163.501 10.5759 162.132 12.3781 161.14 14.7652C159.707 18.1799 159.014 23.3019 159.014 30.2576C159.014 37.4664 159.707 42.8571 161.155 46.4614C162.116 48.8485 163.47 50.6665 165.202 51.8522C166.918 53.0852 169.028 53.6702 171.452 53.6702C173.452 53.6702 175.215 53.2117 176.632 52.2632C177.797 51.5518 178.695 50.5084 179.451 49.1963V59.1083H184.615V49.2754C185.323 50.5559 186.252 51.5518 187.386 52.279C188.834 53.2117 190.629 53.6702 192.708 53.6702C195.164 53.6702 197.274 53.0852 198.99 51.8522C200.706 50.6665 202.028 48.8485 202.989 46.4614C204.343 42.9519 205.036 37.577 205.051 30.2576C205.036 23.3493 204.327 18.1957 202.894 14.7652C201.918 12.3781 200.517 10.5759 198.754 9.35869ZM241.642 8.66311V13.2318H251.482V52.5478H256.631V13.2318H266.991V8.66311H241.642ZM217.616 40.8494L215.49 46.3508C215.585 45.592 215.663 44.8332 215.758 44.0111C215.931 42.0983 216.01 40.1064 216.01 38.0355V8.75796H210.672V52.5478H217.017L230.337 20.9148L232.463 15.4292C232.368 16.188 232.29 16.9626 232.227 17.753C232.022 19.7133 231.943 21.6894 231.943 23.7603V52.5478H237.281V8.75796H230.841L217.616 40.8494ZM148.119 36.5653C148.119 38.3674 147.993 40.1064 147.678 41.7347C147.395 43.3472 146.828 44.7225 145.993 45.9714C144.624 47.9949 142.624 48.9908 139.837 48.9908C138.798 48.9908 137.932 48.8485 137.208 48.5324C136.484 48.1688 135.933 47.7261 135.507 47.1096C134.642 45.8133 134.232 44.0585 134.232 41.8453C134.201 39.5373 134.642 37.8141 135.413 36.6601C136.216 35.5219 137.712 34.3995 139.963 33.3087V33.3403L148.119 29.4514V36.5653ZM154.448 48.8802C154.023 48.8327 153.787 48.6746 153.677 48.5798C153.598 48.5008 153.472 48.2636 153.409 47.8842C153.33 47.5206 153.283 46.9989 153.283 46.3824V19.7765C153.283 15.777 152.433 12.7575 150.654 10.734C148.875 8.72634 145.978 7.7304 142.041 7.7304C138.137 7.7304 135.161 8.74215 133.162 10.7973C131.178 12.8682 130.186 15.9193 130.186 19.9504V20.2192H135.114L135.161 19.9979C135.413 18.4961 135.665 17.3104 135.901 16.4251C136.122 15.524 136.358 14.9549 136.484 14.702C136.956 13.9116 137.602 13.3425 138.483 12.9314C139.365 12.5362 140.514 12.3307 141.868 12.3307C143.836 12.3307 145.364 12.884 146.481 13.9906C147.552 15.0972 148.119 16.7255 148.119 18.9703C148.119 21.0729 147.914 22.5747 147.536 23.4916C147.174 24.3927 146.45 25.104 145.301 25.6257L136.94 29.3724C134.027 30.637 131.996 32.2021 130.784 34.2098C129.619 36.1068 129.036 38.6836 129.036 41.8928C129.036 45.671 129.698 48.4849 131.052 50.3662C131.855 51.4886 132.925 52.2948 134.264 52.8797C135.602 53.3856 137.224 53.6702 139.081 53.6702C141.034 53.6702 142.876 53.2749 144.624 52.4371C146.151 51.7099 147.473 50.6981 148.513 49.386C148.843 50.5559 149.3 51.4886 150.008 52.1842C150.827 52.9588 151.882 53.3224 153.189 53.3224C153.787 53.3224 154.338 53.3224 154.779 53.2591C155.314 53.2117 155.787 53.0378 156.243 52.8165L156.416 52.7533V48.9908H156.149C155.44 48.9908 154.858 48.9908 154.448 48.8802ZM73.8201 52.5478H79.0001V13.3425H94.477V8.75796H73.8201V52.5478Z" fill="#252525"/>
<path d="M41.0714 33.1506C37.7178 35.0318 34.9625 37.8616 33.1518 41.2762C39.1033 42.4777 44.3305 45.9714 47.7628 50.8088C48.8177 49.8761 49.7939 48.8802 50.707 47.821C45.7947 44.4063 42.205 39.1895 41.0714 33.1506Z" fill="#252525"/>
<path d="M44.5194 26.1316C45.8577 26.5901 47.2747 26.8904 48.7547 27.0169C49.3845 26.9695 50.03 26.9378 50.6755 26.9537C51.0849 26.9695 51.4943 26.9695 51.9036 27.0169C53.9032 26.8272 55.8083 26.3845 57.5874 25.6732C57.0679 20.9306 55.4304 16.5358 52.9113 12.7417C48.4556 15.8086 45.2594 20.5986 44.5194 26.1316Z" fill="#252525"/>
<path d="M31.7505 44.7383C31.231 46.5405 30.9633 48.4059 30.9948 50.3662C31.042 52.9113 31.5931 55.3775 32.5693 57.6539C37.0565 57.069 41.2288 55.4565 44.8343 53.0378C41.8428 48.7221 37.1667 45.671 31.7505 44.7383Z" fill="#252525"/>
<path d="M50.3292 30.7319C49.9198 30.7161 49.5262 30.7003 49.1326 30.6845C47.5739 30.7951 46.0309 31.1113 44.5667 31.6014C45.4169 37.0553 48.5028 41.8927 52.8955 44.9596C55.4304 41.1497 57.0836 36.7233 57.5874 31.9492C55.9028 31.2694 54.1236 30.8267 52.2658 30.6845C51.6202 30.7161 50.9747 30.7319 50.3292 30.7319Z" fill="#252525"/>
<path d="M16.3996 24.614C19.8004 22.7169 22.54 19.8556 24.3191 16.3935C18.4306 15.1446 13.2506 11.6667 9.84982 6.87674C8.77918 7.79364 7.80302 8.78958 6.88983 9.83295C11.7549 13.2634 15.203 18.5119 16.3996 24.614Z" fill="#252525"/>
<path d="M31.845 12.963C37.1667 12.0461 41.8428 8.96347 44.8658 4.64772C41.2288 2.2132 37.025 0.584918 32.4748 0C31.4829 2.35548 30.9318 4.94809 30.9948 7.65136C31.0263 9.46934 31.3254 11.2715 31.845 12.963Z" fill="#252525"/>
<path d="M25.7519 44.7225C20.4459 45.6236 15.7383 48.7063 12.7153 53.022C16.3208 55.4249 20.4932 57.0532 24.9804 57.6539C25.9723 55.2984 26.5391 52.7374 26.6021 50.0184C26.5706 48.2004 26.2714 46.414 25.7519 44.7225Z" fill="#252525"/>
<path d="M25.7046 13.0105C26.24 11.1925 26.5706 9.27964 26.6021 7.30357C26.5548 4.74258 25.988 2.29225 25.0276 0C20.5404 0.600726 16.3681 2.2132 12.7626 4.61611C15.7383 8.96347 20.3672 12.141 25.7046 13.0105Z" fill="#252525"/>
<path d="M33.2778 16.4726C35.0569 19.8872 37.7965 22.7486 41.1343 24.6298C42.3152 18.6067 45.8262 13.2792 50.6756 9.80133C49.7624 8.74215 48.7705 7.76202 47.7156 6.82932C44.3305 11.7142 39.2135 15.3027 33.2778 16.4726Z" fill="#252525"/>
<path d="M24.3821 41.3078C22.6029 37.8616 19.8319 34.9528 16.4625 33.0399C15.2817 39.063 11.7706 44.4063 6.9213 47.8684C7.83448 48.9276 8.81065 49.9235 9.88128 50.8088C13.2506 46.0188 18.3991 42.5725 24.3821 41.3078Z" fill="#252525"/>
<path d="M13.0147 31.5223C11.6764 31.0797 10.2909 30.7793 8.8424 30.6845C8.21261 30.7161 7.58283 30.7319 6.92156 30.7319C6.52794 30.7161 6.13433 30.7003 5.74071 30.6845C3.7254 30.8267 1.82031 31.301 0.0254211 32.0282C0.529248 36.7708 2.18243 41.1497 4.68582 44.9438C9.07857 41.8928 12.133 37.0711 13.0147 31.5223Z" fill="#252525"/>
<path d="M7.26778 26.9536C7.67714 26.9695 8.07076 26.9695 8.48012 27.0011C10.0703 26.8746 11.5975 26.59 13.0303 26.0842C12.1958 20.6302 9.09416 15.777 4.71716 12.6943C2.16653 16.5042 0.529093 20.9464 0.00952148 25.7206C1.67845 26.4003 3.45759 26.843 5.34694 27.0011C5.99247 26.9695 6.60651 26.9378 7.26778 26.9536Z" fill="#252525"/>
<path d="M0.686462 74V63.3134H1.86731V64.3251C2.15071 63.9457 2.4656 63.6454 2.82773 63.4399C3.17411 63.2502 3.59921 63.1553 4.10304 63.1553C4.74857 63.1553 5.33112 63.3134 5.83495 63.6612C6.33877 63.9932 6.71664 64.4832 6.96856 65.084C7.22047 65.7005 7.34643 66.3803 7.34643 67.1233C7.34643 67.8979 7.20473 68.6093 6.93707 69.2416C6.65367 69.874 6.24431 70.364 5.70899 70.696C5.17367 71.028 4.60687 71.2019 4.00857 71.2019C3.56772 71.2019 3.18985 71.107 2.84347 70.9173C2.49709 70.7434 2.21369 70.5063 1.99326 70.2217V74H0.686462ZM1.86731 67.2181C1.86731 68.2141 2.07199 68.9412 2.4656 69.4155C2.87496 69.8898 3.3473 70.1269 3.91411 70.1269C4.49666 70.1269 5.00048 69.874 5.40984 69.3839C5.8192 68.8938 6.02388 68.135 6.02388 67.1075C6.02388 66.1273 5.8192 65.4001 5.42559 64.9101C5.01623 64.42 4.54389 64.1829 3.97708 64.1829C3.42602 64.1829 2.93794 64.4358 2.51284 64.9575C2.08773 65.4792 1.86731 66.238 1.86731 67.2181ZM14.1638 68.5302L15.5179 68.7199C15.3132 69.4945 14.9196 70.1111 14.337 70.5537C13.7702 70.9806 13.046 71.2019 12.1485 71.2019C11.0307 71.2019 10.1332 70.8541 9.48769 70.1585C8.82642 69.4629 8.49578 68.4986 8.49578 67.2339C8.49578 65.9534 8.82642 64.9417 9.48769 64.2303C10.149 63.5031 11.0149 63.1553 12.0698 63.1553C13.0932 63.1553 13.9434 63.5031 14.5889 64.1987C15.2345 64.9101 15.5651 65.8902 15.5651 67.1707C15.5651 67.2339 15.5651 67.3604 15.5494 67.5027H9.83407C9.88131 68.3563 10.1175 69.0045 10.5426 69.4471C10.9677 69.9056 11.503 70.1269 12.1485 70.1269C12.6209 70.1269 13.0302 70.0004 13.3609 69.7475C13.7072 69.4945 13.9749 69.0835 14.1638 68.5302ZM9.89705 66.4435H14.1796C14.1324 65.7953 13.9592 65.3053 13.6915 64.9733C13.2821 64.4832 12.7468 64.2303 12.0856 64.2303C11.4873 64.2303 10.9834 64.42 10.5741 64.831C10.1647 65.2262 9.94429 65.7637 9.89705 66.4435ZM17.1553 63.3134H18.4464V66.649C18.8715 66.649 19.1549 66.57 19.3281 66.4119C19.4855 66.2538 19.7374 65.7795 20.0681 65.0207C20.32 64.4042 20.5247 64.009 20.6821 63.8035C20.8396 63.6138 21.0285 63.4873 21.2332 63.424C21.4378 63.345 21.7842 63.3134 22.2408 63.3134H22.4927V64.3884H22.1306C21.7842 64.3884 21.5638 64.4358 21.4693 64.5465C21.3749 64.6413 21.2174 64.9575 21.0127 65.495C20.8081 66.0008 20.6349 66.3486 20.4617 66.5383C20.3042 66.728 20.0523 66.9177 19.7059 67.0758C20.2727 67.2181 20.8238 67.7398 21.3591 68.6409L22.7919 71.028H21.3591L19.9579 68.6567C19.6744 68.1666 19.4225 67.8505 19.2021 67.6924C18.9974 67.5501 18.7455 67.471 18.4464 67.471V71.028H17.1553V63.3134ZM24.4451 63.3134H30.5067V71.028H29.1999V64.4042H25.7519V68.2457C25.7519 69.1309 25.7204 69.7317 25.6574 70.0162C25.6102 70.3008 25.4527 70.5537 25.1851 70.7592C24.9174 70.9806 24.5553 71.0754 24.0514 71.0754C23.7523 71.0754 23.4059 71.0596 23.0123 71.028V69.9372H23.5791C23.8468 69.9372 24.0357 69.9056 24.1617 69.8423C24.2719 69.7949 24.3506 69.7001 24.3821 69.5894C24.4293 69.4629 24.4451 69.0677 24.4451 68.4038V63.3134ZM37.4659 70.0637C36.9935 70.4747 36.5212 70.775 36.0803 70.9489C35.6237 71.107 35.1514 71.2019 34.6318 71.2019C33.7974 71.2019 33.1361 70.9964 32.6952 70.5853C32.2386 70.1743 32.0025 69.6368 32.0025 69.0045C32.0025 68.6251 32.0969 68.2773 32.2701 67.9611C32.4433 67.6449 32.6637 67.4078 32.9314 67.2181C33.2148 67.0284 33.5297 66.8861 33.8761 66.7913C34.128 66.7122 34.5216 66.649 35.0412 66.5858C36.0803 66.4593 36.8676 66.317 37.3556 66.1431C37.3714 65.9692 37.3714 65.8428 37.3714 65.7953C37.3714 65.2737 37.2454 64.8942 36.9935 64.6729C36.6629 64.3884 36.1748 64.2303 35.5135 64.2303C34.8995 64.2303 34.4429 64.3409 34.1595 64.5623C33.8603 64.7836 33.6399 65.163 33.4982 65.7163L32.2229 65.5266C32.3489 64.9891 32.5378 64.5465 32.8054 64.1987C33.0731 63.8667 33.451 63.6138 33.9548 63.424C34.4586 63.2502 35.0412 63.1553 35.7025 63.1553C36.3637 63.1553 36.899 63.2343 37.3084 63.3924C37.7178 63.5347 38.0169 63.7402 38.2216 63.9774C38.4105 64.1987 38.5365 64.499 38.631 64.8626C38.6624 65.084 38.6939 65.495 38.6939 66.0641V67.803C38.6939 69.0045 38.7097 69.7791 38.7727 70.0953C38.8199 70.4273 38.9301 70.7434 39.0875 71.028H37.7178C37.5918 70.7592 37.5131 70.4431 37.4659 70.0637ZM37.3714 67.1707C36.899 67.3604 36.1905 67.5185 35.2301 67.6608C34.6948 67.7398 34.3169 67.8188 34.0965 67.9137C33.8761 68.0085 33.7029 68.1508 33.5769 68.3405C33.4667 68.5302 33.4037 68.7357 33.4037 68.9571C33.4037 69.3048 33.5297 69.5894 33.7974 69.8265C34.065 70.0478 34.4429 70.1743 34.9467 70.1743C35.4505 70.1743 35.8914 70.0637 36.285 69.8423C36.6786 69.621 36.962 69.3207 37.151 68.9412C37.2927 68.6567 37.3556 68.2141 37.3556 67.6449L37.3714 67.1707ZM40.7407 63.3134H42.7403L44.7713 69.4945L47.0228 63.3134H48.8807V71.028H47.5739V64.8152L45.3067 71.028H44.1416L42.0003 64.5307V71.028H40.7407V63.3134ZM50.8802 63.3134H52.1713V66.5225H55.7926V63.3134H57.0994V71.028H55.7926V67.6133H52.1713V71.028H50.8802V63.3134ZM58.5636 67.1707C58.5636 65.7479 58.9572 64.6887 59.7445 64.009C60.4057 63.4399 61.2087 63.1553 62.1691 63.1553C63.224 63.1553 64.09 63.5031 64.7512 64.1987C65.4283 64.8784 65.7589 65.8428 65.7589 67.06C65.7589 68.056 65.6172 68.8306 65.318 69.3997C65.0189 69.9688 64.5938 70.4114 64.027 70.7276C63.4602 71.0438 62.8304 71.2019 62.1691 71.2019C61.0827 71.2019 60.2168 70.8541 59.5555 70.1585C58.8942 69.4629 58.5636 68.467 58.5636 67.1707ZM59.9019 67.1707C59.9019 68.1666 60.1066 68.9096 60.5474 69.3839C60.9725 69.874 61.5079 70.1269 62.1691 70.1269C62.8147 70.1269 63.35 69.874 63.7908 69.3839C64.2159 68.8938 64.4206 68.1508 64.4206 67.1391C64.4206 66.1906 64.2159 65.4634 63.7751 64.9733C63.35 64.4832 62.8147 64.2303 62.1691 64.2303C61.5079 64.2303 60.9725 64.4832 60.5474 64.9733C60.1066 65.4634 59.9019 66.1906 59.9019 67.1707ZM66.7665 67.8346V66.5225H70.7972V67.8346H66.7665ZM72.2142 63.3134H78.2916V71.028H76.9848V64.4042H73.521V71.028H72.2142V63.3134ZM80.2439 74V63.3134H81.4248V64.3251C81.7082 63.9457 82.0231 63.6454 82.3694 63.4399C82.7316 63.2502 83.1567 63.1553 83.6605 63.1553C84.306 63.1553 84.8886 63.3134 85.3924 63.6612C85.8962 63.9932 86.2741 64.4832 86.526 65.084C86.7779 65.7005 86.9039 66.3803 86.9039 67.1233C86.9039 67.8979 86.7622 68.6093 86.4788 69.2416C86.2111 69.874 85.786 70.364 85.2507 70.696C84.7154 71.028 84.1486 71.2019 83.566 71.2019C83.1252 71.2019 82.7316 71.107 82.4009 70.9173C82.0546 70.7434 81.7712 70.5063 81.5507 70.2217V74H80.2439ZM81.4248 67.2181C81.4248 68.2141 81.6295 68.9412 82.0231 69.4155C82.4167 69.8898 82.9048 70.1269 83.4716 70.1269C84.0541 70.1269 84.5422 69.874 84.9516 69.3839C85.3767 68.8938 85.5813 68.135 85.5813 67.1075C85.5813 66.1273 85.3767 65.4001 84.9673 64.9101C84.5737 64.42 84.0856 64.1829 83.5346 64.1829C82.9835 64.1829 82.4954 64.4358 82.0703 64.9575C81.6452 65.4792 81.4248 66.238 81.4248 67.2181ZM87.9903 67.1707C87.9903 65.7479 88.3839 64.6887 89.1711 64.009C89.8324 63.4399 90.6511 63.1553 91.5958 63.1553C92.6507 63.1553 93.5166 63.5031 94.1779 64.1987C94.8549 64.8784 95.1856 65.8428 95.1856 67.06C95.1856 68.056 95.0439 68.8306 94.7447 69.3997C94.4456 69.9688 94.0205 70.4114 93.4537 70.7276C92.8868 71.0438 92.2571 71.2019 91.5958 71.2019C90.5252 71.2019 89.6435 70.8541 88.9822 70.1585C88.3209 69.4629 87.9903 68.467 87.9903 67.1707ZM89.3286 67.1707C89.3286 68.1666 89.5332 68.9096 89.9741 69.3839C90.3992 69.874 90.9345 70.1269 91.5958 70.1269C92.2413 70.1269 92.7766 69.874 93.2175 69.3839C93.6426 68.8938 93.863 68.1508 93.863 67.1391C93.863 66.1906 93.6426 65.4634 93.2017 64.9733C92.7766 64.4832 92.2413 64.2303 91.5958 64.2303C90.9345 64.2303 90.3992 64.4832 89.9741 64.9733C89.5332 65.4634 89.3286 66.1906 89.3286 67.1707ZM96.7128 63.3134H98.0196V69.21L101.641 63.3134H103.042V71.028H101.735V65.1788L98.1298 71.028H96.7128V63.3134ZM106.695 67.5343V66.5067C107.246 66.5067 107.624 66.4909 107.813 66.4435C108.017 66.4119 108.206 66.3012 108.38 66.0957C108.568 65.906 108.647 65.6689 108.647 65.3843C108.647 65.0207 108.537 64.752 108.301 64.5307C108.065 64.3251 107.765 64.2303 107.388 64.2303C106.663 64.2303 106.144 64.6571 105.845 65.5108L104.601 65.3053C104.994 63.8667 105.923 63.1553 107.403 63.1553C108.222 63.1553 108.868 63.3766 109.324 63.8193C109.797 64.2777 110.033 64.8152 110.033 65.4317C110.033 66.0641 109.718 66.5541 109.12 66.9336C109.513 67.1391 109.797 67.4078 109.985 67.724C110.19 68.0402 110.285 68.4196 110.285 68.8622C110.285 69.5578 110.033 70.1269 109.529 70.5537C109.025 70.9806 108.317 71.2019 107.419 71.2019C105.671 71.2019 104.648 70.4273 104.365 68.8622L105.593 68.5935C105.719 69.0835 105.939 69.4629 106.27 69.7317C106.616 70.0004 107.01 70.1427 107.451 70.1427C107.876 70.1427 108.254 70.0162 108.537 69.7633C108.836 69.5262 108.978 69.21 108.978 68.8148C108.978 68.5144 108.883 68.2615 108.71 68.0402C108.521 67.803 108.332 67.6766 108.112 67.6133C107.907 67.5659 107.529 67.5343 106.994 67.5343C106.947 67.5343 106.852 67.5343 106.695 67.5343ZM111.78 63.3134H114.788C115.512 63.3134 116.063 63.3766 116.425 63.5031C116.787 63.6296 117.086 63.8509 117.354 64.1829C117.606 64.5148 117.732 64.9101 117.732 65.3685C117.732 65.7321 117.669 66.0641 117.511 66.3328C117.354 66.6016 117.134 66.8387 116.819 67.0284C117.181 67.1391 117.48 67.3762 117.716 67.7082C117.952 68.0243 118.078 68.4196 118.078 68.878C118.031 69.6052 117.763 70.1585 117.291 70.5063C116.834 70.8541 116.142 71.028 115.244 71.028H111.78V63.3134ZM113.087 66.57H114.473C115.024 66.57 115.402 66.5383 115.606 66.4909C115.811 66.4277 116 66.317 116.157 66.1273C116.331 65.9534 116.409 65.7479 116.409 65.495C116.409 65.084 116.268 64.7994 115.984 64.6413C115.685 64.4832 115.197 64.4042 114.504 64.4042H113.087V66.57ZM113.087 69.9688H114.803C115.528 69.9688 116.047 69.874 116.315 69.7001C116.582 69.5262 116.724 69.2416 116.74 68.8148C116.74 68.5618 116.661 68.3405 116.504 68.1192C116.346 67.9137 116.142 67.7872 115.89 67.724C115.638 67.6766 115.228 67.6449 114.662 67.6449H113.087V69.9688ZM118.991 67.1707C118.991 65.7479 119.385 64.6887 120.188 64.009C120.849 63.4399 121.652 63.1553 122.597 63.1553C123.652 63.1553 124.518 63.5031 125.195 64.1987C125.856 64.8784 126.202 65.8428 126.202 67.06C126.202 68.056 126.045 68.8306 125.746 69.3997C125.462 69.9688 125.022 70.4114 124.455 70.7276C123.888 71.0438 123.274 71.2019 122.597 71.2019C121.526 71.2019 120.66 70.8541 119.999 70.1585C119.322 69.4629 118.991 68.467 118.991 67.1707ZM120.33 67.1707C120.33 68.1666 120.55 68.9096 120.975 69.3839C121.4 69.874 121.951 70.1269 122.597 70.1269C123.242 70.1269 123.793 69.874 124.219 69.3839C124.644 68.8938 124.864 68.1508 124.864 67.1391C124.864 66.1906 124.644 65.4634 124.219 64.9733C123.778 64.4832 123.242 64.2303 122.597 64.2303C121.951 64.2303 121.4 64.4832 120.975 64.9733C120.55 65.4634 120.33 66.1906 120.33 67.1707ZM128.422 63.3134H133.776V69.9688H134.61V73.2254H133.539V71.028H127.493V73.2254H126.423V69.9688H127.1C128.013 68.7041 128.454 66.4909 128.422 63.3134ZM129.493 64.4042C129.399 66.9019 129.021 68.7674 128.344 69.9688H132.485V64.4042H129.493ZM141.065 68.2141L142.341 68.3879C142.199 69.2732 141.837 69.953 141.27 70.4589C140.687 70.9489 139.979 71.2019 139.144 71.2019C138.09 71.2019 137.255 70.8541 136.61 70.1585C135.98 69.4787 135.649 68.4828 135.649 67.2023C135.649 66.3644 135.791 65.6531 136.074 65.0207C136.342 64.4042 136.751 63.9299 137.318 63.6138C137.885 63.3134 138.499 63.1553 139.16 63.1553C139.979 63.1553 140.672 63.3608 141.191 63.7876C141.727 64.2145 142.073 64.8152 142.215 65.5898L140.955 65.7795C140.845 65.2737 140.624 64.8784 140.31 64.6097C140.01 64.3568 139.633 64.2303 139.207 64.2303C138.546 64.2303 138.011 64.4516 137.602 64.9259C137.192 65.4001 136.987 66.1431 136.987 67.1707C136.987 68.1982 137.192 68.9571 137.586 69.4155C137.979 69.8898 138.499 70.1269 139.129 70.1269C139.648 70.1269 140.073 69.9688 140.404 69.6526C140.75 69.3365 140.971 68.8622 141.065 68.2141ZM142.766 63.3134H148.985V64.4042H146.529V71.028H145.222V64.4042H142.766V63.3134ZM150.229 63.3134H153.236C153.96 63.3134 154.511 63.3766 154.873 63.5031C155.235 63.6296 155.535 63.8509 155.802 64.1829C156.054 64.5148 156.18 64.9101 156.18 65.3685C156.18 65.7321 156.101 66.0641 155.96 66.3328C155.802 66.6016 155.582 66.8387 155.267 67.0284C155.629 67.1391 155.928 67.3762 156.164 67.7082C156.401 68.0243 156.527 68.4196 156.527 68.878C156.479 69.6052 156.212 70.1585 155.739 70.5063C155.267 70.8541 154.59 71.028 153.692 71.028H150.229V63.3134ZM151.535 66.57H152.921C153.472 66.57 153.85 66.5383 154.055 66.4909C154.259 66.4277 154.448 66.317 154.606 66.1273C154.763 65.9534 154.858 65.7479 154.858 65.495C154.858 65.084 154.716 64.7994 154.417 64.6413C154.133 64.4832 153.645 64.4042 152.952 64.4042H151.535V66.57ZM151.535 69.9688H153.252C153.976 69.9688 154.48 69.874 154.763 69.7001C155.031 69.5262 155.172 69.2416 155.188 68.8148C155.188 68.5618 155.109 68.3405 154.952 68.1192C154.795 67.9137 154.59 67.7872 154.338 67.724C154.086 67.6766 153.661 67.6449 153.11 67.6449H151.535V69.9688ZM163.171 68.5302L164.525 68.7199C164.32 69.4945 163.926 70.1111 163.344 70.5537C162.777 70.9806 162.053 71.2019 161.155 71.2019C160.038 71.2019 159.14 70.8541 158.495 70.1585C157.833 69.4629 157.503 68.4986 157.503 67.2339C157.503 65.9534 157.833 64.9417 158.495 64.2303C159.156 63.5031 160.022 63.1553 161.077 63.1553C162.1 63.1553 162.95 63.5031 163.596 64.1987C164.241 64.9101 164.572 65.8902 164.572 67.1707C164.572 67.2339 164.572 67.3604 164.556 67.5027H158.841C158.888 68.3563 159.124 69.0045 159.549 69.4471C159.975 69.9056 160.51 70.1269 161.155 70.1269C161.628 70.1269 162.037 70.0004 162.368 69.7475C162.714 69.4945 162.982 69.0835 163.171 68.5302ZM158.904 66.4435H163.186C163.139 65.7953 162.966 65.3053 162.698 64.9733C162.289 64.4832 161.754 64.2303 161.092 64.2303C160.494 64.2303 159.99 64.42 159.581 64.831C159.172 65.2262 158.951 65.7637 158.904 66.4435ZM166.178 63.3134H167.469V66.5225H171.09V63.3134H172.397V71.028H171.09V67.6133H167.469V71.028H166.178V63.3134ZM174.349 63.3134H175.656V66.5225H179.262V63.3134H180.569V71.028H179.262V67.6133H175.656V71.028H174.349V63.3134ZM187.543 70.0637C187.071 70.4747 186.599 70.775 186.158 70.9489C185.701 71.107 185.229 71.2019 184.709 71.2019C183.875 71.2019 183.214 70.9964 182.757 70.5853C182.316 70.1743 182.08 69.6368 182.08 69.0045C182.08 68.6251 182.174 68.2773 182.332 67.9611C182.505 67.6449 182.741 67.4078 183.009 67.2181C183.292 67.0284 183.607 66.8861 183.954 66.7913C184.206 66.7122 184.599 66.649 185.119 66.5858C186.158 66.4593 186.945 66.317 187.433 66.1431C187.449 65.9692 187.449 65.8428 187.449 65.7953C187.449 65.2737 187.323 64.8942 187.071 64.6729C186.74 64.3884 186.237 64.2303 185.591 64.2303C184.977 64.2303 184.52 64.3409 184.221 64.5623C183.938 64.7836 183.717 65.163 183.576 65.7163L182.3 65.5266C182.426 64.9891 182.615 64.5465 182.883 64.1987C183.151 63.8667 183.529 63.6138 184.032 63.424C184.536 63.2502 185.119 63.1553 185.78 63.1553C186.441 63.1553 186.977 63.2343 187.386 63.3924C187.795 63.5347 188.094 63.7402 188.283 63.9774C188.488 64.1987 188.614 64.499 188.693 64.8626C188.74 65.084 188.756 65.495 188.756 66.0641V67.803C188.756 69.0045 188.787 69.7791 188.85 70.0953C188.897 70.4273 189.008 70.7434 189.165 71.028H187.795C187.669 70.7592 187.591 70.4431 187.543 70.0637ZM187.449 67.1707C186.977 67.3604 186.252 67.5185 185.308 67.6608C184.772 67.7398 184.394 67.8188 184.174 67.9137C183.954 68.0085 183.78 68.1508 183.654 68.3405C183.544 68.5302 183.481 68.7357 183.481 68.9571C183.481 69.3048 183.607 69.5894 183.875 69.8265C184.127 70.0478 184.52 70.1743 185.024 70.1743C185.528 70.1743 185.969 70.0637 186.363 69.8423C186.756 69.621 187.04 69.3207 187.228 68.9412C187.37 68.6567 187.433 68.2141 187.433 67.6449L187.449 67.1707ZM196.817 63.3134V71.028H195.526V68.0243H194.77C194.314 68.0243 193.967 68.0876 193.747 68.2141C193.526 68.3405 193.196 68.7041 192.755 69.3523L191.621 71.028H190L191.417 68.9571C191.842 68.3247 192.267 67.9769 192.692 67.8821C191.952 67.7872 191.401 67.5185 191.039 67.0758C190.677 66.649 190.503 66.1431 190.503 65.574C190.503 64.9101 190.74 64.3568 191.212 63.9457C191.668 63.5189 192.361 63.3134 193.259 63.3134H196.817ZM195.526 64.4042H193.668C192.897 64.4042 192.393 64.5307 192.172 64.7678C191.936 65.0049 191.826 65.2895 191.826 65.6214C191.826 66.0799 191.999 66.4119 192.33 66.6332C192.66 66.8545 193.243 66.9652 194.077 66.9652H195.526V64.4042ZM202.879 63.3134H204.185V66.649C204.611 66.649 204.894 66.57 205.067 66.4119C205.225 66.2538 205.476 65.7795 205.791 65.0207C206.059 64.4042 206.264 64.009 206.421 63.8035C206.579 63.6138 206.768 63.4873 206.972 63.424C207.177 63.345 207.508 63.3134 207.964 63.3134H208.232V64.3884H207.87C207.523 64.3884 207.303 64.4358 207.208 64.5465C207.114 64.6413 206.956 64.9575 206.752 65.495C206.547 66.0008 206.374 66.3486 206.201 66.5383C206.043 66.728 205.791 66.9177 205.445 67.0758C206.012 67.2181 206.563 67.7398 207.098 68.6409L208.531 71.028H207.098L205.681 68.6567C205.398 68.1666 205.162 67.8505 204.941 67.6924C204.736 67.5501 204.485 67.471 204.185 67.471V71.028H202.879V63.3134ZM209.051 67.1707C209.051 65.7479 209.46 64.6887 210.247 64.009C210.908 63.4399 211.711 63.1553 212.656 63.1553C213.711 63.1553 214.577 63.5031 215.254 64.1987C215.915 64.8784 216.262 65.8428 216.262 67.06C216.262 68.056 216.104 68.8306 215.805 69.3997C215.522 69.9688 215.081 70.4114 214.514 70.7276C213.947 71.0438 213.333 71.2019 212.656 71.2019C211.585 71.2019 210.719 70.8541 210.058 70.1585C209.381 69.4629 209.051 68.467 209.051 67.1707ZM210.389 67.1707C210.389 68.1666 210.609 68.9096 211.034 69.3839C211.459 69.874 212.01 70.1269 212.656 70.1269C213.302 70.1269 213.853 69.874 214.278 69.3839C214.703 68.8938 214.923 68.1508 214.923 67.1391C214.923 66.1906 214.703 65.4634 214.278 64.9733C213.837 64.4832 213.302 64.2303 212.656 64.2303C212.01 64.2303 211.459 64.4832 211.034 64.9733C210.609 65.4634 210.389 66.1906 210.389 67.1707ZM217.836 63.3134H219.836L221.867 69.4945L224.118 63.3134H225.976V71.028H224.669V64.8152L222.402 71.028H221.237L219.096 64.5307V71.028H217.836V63.3134ZM227.976 63.3134H234.037V71.028H232.73V64.4042H229.267V71.028H227.976V63.3134ZM241.012 70.0637C240.524 70.4747 240.052 70.775 239.611 70.9489C239.17 71.107 238.682 71.2019 238.178 71.2019C237.328 71.2019 236.682 70.9964 236.226 70.5853C235.769 70.1743 235.549 69.6368 235.549 69.0045C235.549 68.6251 235.627 68.2773 235.801 67.9611C235.974 67.6449 236.194 67.4078 236.478 67.2181C236.761 67.0284 237.06 66.8861 237.407 66.7913C237.674 66.7122 238.052 66.649 238.572 66.5858C239.627 66.4593 240.398 66.317 240.902 66.1431C240.902 65.9692 240.902 65.8428 240.902 65.7953C240.902 65.2737 240.776 64.8942 240.54 64.6729C240.209 64.3884 239.705 64.2303 239.044 64.2303C238.43 64.2303 237.973 64.3409 237.69 64.5623C237.391 64.7836 237.186 65.163 237.044 65.7163L235.769 65.5266C235.879 64.9891 236.068 64.5465 236.336 64.1987C236.604 63.8667 236.997 63.6138 237.501 63.424C237.989 63.2502 238.587 63.1553 239.249 63.1553C239.894 63.1553 240.429 63.2343 240.855 63.3924C241.264 63.5347 241.563 63.7402 241.752 63.9774C241.941 64.1987 242.083 64.499 242.161 64.8626C242.209 65.084 242.224 65.495 242.224 66.0641V67.803C242.224 69.0045 242.256 69.7791 242.303 70.0953C242.35 70.4273 242.461 70.7434 242.618 71.028H241.264C241.138 70.7592 241.044 70.4431 241.012 70.0637ZM240.902 67.1707C240.429 67.3604 239.721 67.5185 238.776 67.6608C238.241 67.7398 237.847 67.8188 237.627 67.9137C237.407 68.0085 237.233 68.1508 237.123 68.3405C236.997 68.5302 236.934 68.7357 236.934 68.9571C236.934 69.3048 237.06 69.5894 237.328 69.8265C237.595 70.0478 237.973 70.1743 238.493 70.1743C238.981 70.1743 239.438 70.0637 239.831 69.8423C240.225 69.621 240.508 69.3207 240.697 68.9412C240.823 68.6567 240.902 68.2141 240.902 67.6449V67.1707ZM244.224 63.3134H245.531V66.5225H249.136V63.3134H250.443V71.028H249.136V67.6133H245.531V71.028H244.224V63.3134ZM252.411 63.3134H253.702V69.21L257.323 63.3134H258.725V71.028H257.434V65.1788L253.812 71.028H252.411V63.3134ZM266.739 63.3134V71.028H265.432V68.0243H264.676C264.22 68.0243 263.889 68.0876 263.669 68.2141C263.432 68.3405 263.102 68.7041 262.677 69.3523L261.527 71.028H259.921L261.323 68.9571C261.748 68.3247 262.189 67.9769 262.614 67.8821C261.874 67.7872 261.307 67.5185 260.96 67.0758C260.598 66.649 260.409 66.1431 260.409 65.574C260.409 64.9101 260.646 64.3568 261.118 63.9457C261.59 63.5189 262.267 63.3134 263.165 63.3134H266.739ZM265.432 64.4042H263.59C262.803 64.4042 262.314 64.5307 262.078 64.7678C261.858 65.0049 261.748 65.2895 261.748 65.6214C261.748 66.0799 261.905 66.4119 262.236 66.6332C262.566 66.8545 263.149 66.9652 263.999 66.9652H265.432V64.4042Z" fill="#252525"/>
</svg>
